<?xml version="1.0" encoding="utf-8"?>
<!-- Generator: Adobe Illustrator 24.0.2, SVG Export Plug-In . SVG Version: 6.00 Build 0)  -->
<svg version="1.1" id="svg2" xmlns="http://www.w3.org/2000/svg" xmlns:xlink="http://www.w3.org/1999/xlink" x="0px" y="0px"
	 viewBox="0 0 668.2 419.8" style="enable-background:new 0 0 668.2 419.8;" xml:space="preserve">
<style type="text/css">
	.st0{opacity:0.9;fill:#FFD42A;enable-background:new    ;}
	.st1{enable-background:new    ;}
	.st2{fill:#D40000;}
	.st3{fill:none;stroke:#000000;stroke-width:3.3;stroke-miterlimit:10;}
</style>
<path id="path3768" class="st0" d="M340,43.8c-6,9.6-11.2,22.5-18.3,30.2c-6.7-7.4-9-26-22.2-24c-15.5,7.8-24.7,25.2-38.7,33.3
	c-4.5-7.4-17.3-7.3-16.8,2.9c-1.8,6.5,1.2,20.1-10.1,13.7c-10.2-1.1-24.5-11.3-32.9-3.1c-2.8,7.4,16.7,18,0.7,14.7
	c-17-0.7-34.3-3.6-51.2-2.1c-9,6.9,4.8,16.3,8.7,22.6c-16.7-3.1-34.6-12.8-51.2-11.5c-7.5,8.6,8.7,18.3,12.7,26.1
	c10.8,9-8.9,5.1-14.6,6.2c-9,1.5-26-3.1-29.3,7.7c-1.2,6.2,17,8.4,6.3,8.4c-9.3,1.4-29.4-5.4-30.7,7.8c5.4,10.1,22.6,12.9,28.5,19.1
	c-10.7,1.7-6.7,14.9,3.3,14.2c16.1,0.3,3.3,3.3-5.2,6.3c-6.9,1.4-22.5,9-11.1,15.3c8.7,3.5,26.7,1.6,30.2,4.2
	c-15.6,6.1-34.8,6.8-47.8,17.3c-0.9,11.8,18.5,8.4,26.3,10.5c7.7,0.5,21.4,1,7,5.1c-10,0.8-18.3,17.3-3.7,16.6
	c6.5,0.3,28-6.4,23.5-1.2c-7.6,9-24.9,14.1-25.6,26.7c10.3,7.6,26.4,0.4,38.6,1.1c5.7,0.3,29.5-5.2,17,1.7
	c-8.5,2.7-14.3,18-0.6,16.5c14.5-2,31.6-7.9,44.4-8.4c-2.4,7.9-15.7,18-7.7,25.7c14-0.8,24.3-14.2,37-19.4c0.1,9.7-12,23.9-1.5,30.6
	c21.3-6.7,40.8-20.8,60.7-28.8c1.6,7.1-3.5,25.3,9.4,23.3c9.8-4.9,19.3-15.1,27.5-18.8c3.8,7.8-2.6,29.4,12.5,25.9
	c9.8-3.6,8-24.4,20.6-15.5c14.1,2.9,28.9,15.2,43.2,11.1c3-10.7-4.4-21.8-4.7-32.7c18.2,4.8,35.5,12.9,54,16.3
	c11.5-1.6-5.4-19.3,7.5-9.4c7,4.8,24.6,16.4,26.8,1.9c2-9.8,0.5-19.9,2-29.8c12.5,0.7,25.9,9.5,37.9,5c5.9-8-12.4-15.7-10.9-19.4
	c18.9,0.7,39,9.3,57.2,5.5c3.1-8.6-5.1-17.4-7.3-25.7c12.3-0.8,27.8,7,38,3.2c5.1-10.2-10.3-19.7-13.6-29
	c0.4-7.7,38.7,3.1,30.3-11.9c-8.8-3.8-18.1-6.8-26.6-11.2c12.9-2.7,27,0.3,39.4-3.6c4.6-12.3-40.3-15.9-20.3-21.3
	c8.2-4.6,26.9-2,27.6-13.5c-7.8-10-26.3-4.8-34.7-7.8c9.9-6.7,27.2-7,32.2-18.4c-5.1-11.2-23.5-5.4-33.8-8.1
	c-4.4-1.5-27.3,0.8-21.1-3.4c5.9-4.7,23.2-7.9,17.8-17.7c-9.6-4.8-27,4.9-32.5,1.9c19.5-8.9,10.1-21.7-8.5-14.6
	c-6.5-0.4-34.5,6.1-16.7-3c9.1-1.9,11.4-16.3-0.4-13.8c-13.7,1.9-29.2,9-40.6,11c5.7-8.7,24.2-14.2,20.7-26
	c-13.2-4.7-29.4,8.6-40.5,7c-3.8-11.6-1.6-26.4-9.7-36.2c-17.2,1.7-34.1,18.6-49.3,19.9c-3.3-10.5-16.6-0.1-21.3,4.2
	c-12-10.6-21.2-24.9-34.8-33.3l-2.5,1.2L340,43.8L340,43.8z"/>
<g class="st1">
	<path class="st2" d="M218.4,216.8c0,3.4-1.3,7-3.8,10.8c-4.9,7-13.2,12.9-24.7,17.7c-6,2.6-12.5,3.8-19.1,3.8c-6,0-12.3-1-19-3
		c1.4-4.3,4-10.7,7.4-19.2c4.3,1.6,8.7,2.3,12.8,2.3c2,0,4-0.2,6-0.6c9.9-1.7,14.8-4,14.6-6.9c0-2.1-2.7-3.2-7.9-3.2
		c-3.1,0-7.8,0.4-13.9,1.3c-6.1,0.8-10.8,1.2-14.1,1.2c-12.8,0-19.3-4.2-19.3-12.6c0-7.8,5.2-16.3,15.5-25.8
		c12.1-10.8,23.5-16.4,34.5-17c13.2-0.6,20.9,7.3,23.6,23.8l-12.3,3.1l-12.1,3.2c-1.3-3.4-3.4-5.1-6.5-5.1c-4.3,0-8.1,1.6-11.2,4.6
		c-1.6,1.4-2.3,3-2.3,4.4c0,2.8,2.5,4.2,7.8,4.2c2.3,0,5.2-0.2,8.7-0.7c5.1-0.7,9.6-1,13.4-1c9.9,0,16.2,2.1,19.3,6.2
		C217.5,211.1,218.4,213.9,218.4,216.8z"/>
	<path class="st2" d="M271.8,248.7l-2-13.6l-11.4,1.3l-0.3,9.7l-35.7,3.4c7.8-26.7,12.6-52.8,14.8-78.4l51.8-5.7
		c1.3,21.3,7.4,47.3,18.4,77.9L271.8,248.7z M267.7,220.6l-6.1-41h-0.2l-2,42L267.7,220.6z"/>
	<path class="st2" d="M375.6,166.9c-6,22.3-9.9,47.6-11.7,75.7l-44.9,5.2c-0.5-10.4-3.2-23.1-7.8-37.9c-4-12.4-7.9-24.9-11.7-37.4
		l33.6-4.9l8.8,69.2l0.4-7.7l2.5-58.8L375.6,166.9z"/>
	<path class="st2" d="M449.3,239.5c-16.1,0.9-36.6,3.4-61.7,7.6l-6-77.7l56.9-5.3l4.6,20c-10.6,0.6-20.9,1.3-31,2.3
		c-0.2,2.1-0.2,4.1-0.2,6.1v6.1l26.9-3.8l3.6,15c-5.1,0.6-10.1,1.1-15,1.8l-15.2,2c0,1.4,0,2.9,0.2,4.3l0.4,4.3l31.8-3L449.3,239.5z
		"/>
	<path class="st2" d="M514.1,230.2c-13.7,9.6-30.9,15.1-51.3,16.8l-1.1-14.2l-1.6-25.2c-0.5-9-1.3-17.2-1.8-24.7l-1.1-12.7
		c12.5-2.8,23.5-4.1,33-4.1c10.6,0,19.1,1.7,25.8,5.1c12.8,6.6,19.1,15.1,19,25.7C534.8,209.6,527.9,220.7,514.1,230.2z
		 M488.6,188.1c-0.2,3.3-0.2,6.7-0.2,10c0,10.6,0.5,20.7,1.8,30.2c11.6-8.2,17.7-16.9,18.6-26.1
		C509.7,193.3,503.2,187.7,488.6,188.1z"/>
</g>
<g>
	<path class="st3" d="M215.2,221.4c0,3.4-1.3,7-3.8,10.8c-4.9,7-13.2,12.9-24.7,17.7c-6,2.6-12.5,3.8-19.1,3.8c-6,0-12.3-1-19-3
		c1.4-4.3,4-10.7,7.4-19.2c4.3,1.6,8.7,2.3,12.8,2.3c2,0,4-0.2,6-0.6c9.9-1.7,14.8-4,14.6-6.9c0-2.1-2.7-3.2-7.9-3.2
		c-3.1,0-7.8,0.4-13.9,1.3c-6.1,0.8-10.8,1.2-14.1,1.2c-12.8,0-19.3-4.2-19.3-12.6c0-7.8,5.2-16.3,15.5-25.8
		c12.1-10.8,23.5-16.4,34.5-17c13.2-0.6,20.9,7.3,23.6,23.8l-12.3,3.1l-12.1,3.2c-1.3-3.4-3.4-5.1-6.5-5.1c-4.3,0-8.1,1.6-11.2,4.6
		c-1.6,1.4-2.3,3-2.3,4.4c0,2.8,2.5,4.2,7.8,4.2c2.3,0,5.2-0.2,8.7-0.7c5.1-0.7,9.6-1,13.4-1c9.9,0,16.2,2.1,19.3,6.2
		C214.3,215.7,215.2,218.5,215.2,221.4z"/>
	<path class="st3" d="M268.6,253.3l-2-13.6l-11.4,1.3l-0.4,9.7l-35.7,3.4c7.8-26.7,12.6-52.8,14.8-78.4l51.8-5.7
		c1.3,21.3,7.4,47.3,18.4,77.9L268.6,253.3z M264.5,225.2l-6.1-41h-0.2l-2,42L264.5,225.2z"/>
	<path class="st3" d="M372.4,171.5c-6,22.3-9.9,47.6-11.7,75.7l-44.9,5.2c-0.5-10.4-3.2-23.1-7.8-37.9c-4-12.4-7.9-24.9-11.7-37.4
		l33.6-4.9l8.8,69.2l0.4-7.7l2.5-58.8L372.4,171.5z"/>
	<path class="st3" d="M446.1,244.1c-16.1,0.9-36.6,3.4-61.7,7.6l-6-77.7l56.9-5.3l4.7,20.2c-10.6,0.6-20.9,1.3-31,2.3
		c-0.2,2.1-0.2,4.1-0.2,6.1v6.1l26.9-3.8l3.6,15c-5.1,0.6-10.1,1.1-15,1.8l-15.2,2c0,1.4,0,2.9,0.2,4.3l0.4,4.3l31.8-3L446.1,244.1z
		"/>
	<path class="st3" d="M510.9,234.8c-13.7,9.6-30.9,15.1-51.3,16.8l-1.1-14.2l-1.6-25.2c-0.5-9-1.3-17.2-1.8-24.7l-1.1-12.7
		c12.5-2.8,23.5-4.1,33-4.1c10.6,0,19.1,1.7,25.8,5.1c12.8,6.6,19.1,15.1,19,25.7C531.6,214.2,524.7,225.3,510.9,234.8z
		 M485.4,192.7c-0.2,3.3-0.2,6.7-0.2,10c0,10.6,0.5,20.7,1.8,30.2c11.6-8.2,17.7-16.9,18.6-26.1C506.5,197.9,500,192.3,485.4,192.7z
		"/>
</g>
</svg>
