<?xml version="1.0" encoding="utf-8"?>
<!-- Generator: Adobe Illustrator 24.0.2, SVG Export Plug-In . SVG Version: 6.00 Build 0)  -->
<svg version="1.1" id="svg2" xmlns="http://www.w3.org/2000/svg" xmlns:xlink="http://www.w3.org/1999/xlink" x="0px" y="0px"
	 viewBox="0 0 565.9 318.7" style="enable-background:new 0 0 565.9 318.7;" xml:space="preserve">
<style type="text/css">
	.st0{opacity:0.9;fill:#FFD42A;enable-background:new    ;}
	.st1{fill:#D40000;}
	.st2{fill:none;stroke:#000000;stroke-width:3.1;stroke-miterlimit:10;}
</style>
<path id="path3768" class="st0" d="M289.7,1.9c-6,9.6-11.2,22.5-18.3,30.2c-6.7-7.4-9-26-22.2-24c-15.5,7.8-24.7,25.2-38.7,33.3
	c-4.5-7.4-17.3-7.3-16.8,2.9c-1.8,6.5,1.2,20.1-10.1,13.7c-10.2-1.1-24.5-11.3-32.9-3.1c-2.8,7.4,16.7,18,0.7,14.7
	c-17-0.7-34.3-3.6-51.2-2.1c-9,6.9,4.8,16.3,8.7,22.6C92.2,87,74.3,77.3,57.7,78.6c-7.5,8.6,8.7,18.3,12.7,26.1
	c10.8,9-8.9,5.1-14.6,6.2c-9,1.5-26-3.1-29.3,7.7c-1.2,6.2,17,8.4,6.3,8.4s-29.4-5.4-30.7,7.8c5.4,10.1,22.6,12.9,28.5,19.1
	c-10.7,1.7-6.7,14.9,3.3,14.2c16.1,0.3,3.3,3.3-5.2,6.3c-6.9,1.4-22.5,9-11.1,15.3c8.7,3.5,26.7,1.6,30.2,4.2
	C32.2,200,13,200.7,0,211.2c-0.9,11.8,18.5,8.4,26.3,10.5c7.7,0.5,21.4,1,7,5.1c-10,0.8-18.3,17.3-3.7,16.6c6.5,0.3,28-6.4,23.5-1.2
	c-7.6,9-24.9,14.1-25.6,26.7c10.3,7.6,26.4,0.4,38.6,1.1c5.7,0.3,29.5-5.2,17,1.7c-8.5,2.7-14.3,18-0.6,16.5s31.6-7.9,44.4-8.4
	c-2.4,7.9-15.7,18-7.7,25.7c14-0.8,24.3-14.2,37-19.4c0.1,9.7-12,23.9-1.5,30.6c21.3-6.7,40.8-20.8,60.7-28.8
	c1.6,7.1-3.5,25.3,9.4,23.3c9.8-4.9,19.3-15.1,27.5-18.8c3.8,7.8-2.6,29.4,12.5,25.9c9.8-3.6,8-24.4,20.6-15.5
	c14.1,2.9,28.9,15.2,43.2,11.1c3-10.7-4.4-21.8-4.7-32.7c18.2,4.8,35.5,12.9,54,16.3c11.5-1.6-5.4-19.3,7.5-9.4
	c7,4.8,24.6,16.4,26.8,1.9c2-9.8,0.5-19.9,2-29.8c12.5,0.7,25.9,9.5,37.9,5c5.9-8-12.4-15.7-10.9-19.4c18.9,0.7,39,9.3,57.2,5.5
	c3.1-8.6-5.1-17.4-7.3-25.7c12.3-0.8,27.8,7,38,3.2c5.1-10.2-10.3-19.7-13.6-29c0.4-7.7,38.7,3.1,30.3-11.9
	c-8.8-3.8-18.1-6.8-26.6-11.2c12.9-2.7,27,0.3,39.4-3.6c4.6-12.3-40.3-15.9-20.3-21.3c8.2-4.6,26.9-2,27.6-13.5
	c-7.8-10-26.3-4.8-34.7-7.8c9.9-6.7,27.2-7,32.2-18.4c-5.1-11.2-23.5-5.4-33.8-8.1c-4.4-1.5-27.3,0.8-21.1-3.4s23.2-7.9,17.8-17.7
	c-9.6-4.8-27,4.9-32.5,1.9c19.5-8.9,10.1-21.7-8.5-14.6c-6.5-0.4-34.5,6.1-16.7-3c9.1-1.9,11.4-16.3-0.4-13.8
	c-13.7,1.9-29.2,9-40.6,11c5.7-8.7,24.2-14.2,20.7-26c-13.2-4.7-29.4,8.6-40.5,7c-3.8-11.6-1.6-26.4-9.7-36.2
	c-17.2,1.7-34.1,18.6-49.3,19.9c-3.3-10.5-16.6-0.1-21.3,4.2c-12-10.6-21.2-24.9-34.8-33.3l-2.5,1.2L289.7,1.9L289.7,1.9z"/>
<g>
	<path class="st1" d="M197.3,176.6c0,2.8-1.2,5.6-3.5,8.7c-5,6.5-13.1,11.5-24.4,15.2c-11,3.5-22.5,5.2-34,5.1h-7.1
		c-0.5-16.5-2.2-35.6-4.8-57.2c-0.9-6.8-1.7-12.1-2.6-16.1l22.5-3.2c7.5-1.2,15-1.9,22.6-2c14.9,0,23.3,3.3,25.4,9.8
		c0.5,1.5,0.7,3,0.7,4.5c0,7.8-6.4,15.4-19,23.1c11.6-0.5,18.8,1.5,22.1,6C196.5,172.3,197.3,174.4,197.3,176.6z M167.4,148.9
		c0-1.6-1.7-2.3-5-2.3c-3,0.1-6,0.4-9,1.1c-0.2,2.3-0.2,4.7-0.2,6.9v6.7c7.1-3.1,11.7-6.6,13.8-10.7
		C167.2,150.1,167.4,149.5,167.4,148.9L167.4,148.9z M168.1,173.9c-4.8,0.1-9.6,0.6-14.3,1.5c0.1,3.6,0.4,7.2,0.9,10.7
		c12.8-2.6,19.5-5.6,20.4-9.1C175.3,175,173.1,173.9,168.1,173.9L168.1,173.9z"/>
	<path class="st1" d="M249.4,207l-1.9-13l-10.9,1.3l-0.3,9.3l-34.2,3.3c7.2-24.5,12-49.7,14.2-75.1l49.6-5.4
		c1.2,20.4,7.1,45.3,17.6,74.5L249.4,207z M245.5,180.1l-5.9-39.2h-0.2l-1.9,40.2L245.5,180.1z"/>
	<path class="st1" d="M368.5,203.8l-9.7-45.4l-4.7,50.3l-18,1.6l-11.1-64l-4.3,56.7l-34,3c7-23.4,10.3-47.8,9.7-72.3l39-4l7.4,38.2
		l3.6-35.3l37.1-4.1c3.1,24.6,9.2,48.7,18,71.8L368.5,203.8z"/>
	<path class="st1" d="M440.8,205.7c-3.9,1.9-8.1,3.1-12.4,3.4c-4.2,0.5-8.4,0-12.3-1.4c-4-1.4-5.9-3.5-5.9-6.4s1.9-5.2,5.7-7.3
		c3.9-2,8.1-3.2,12.4-3.5c4.2-0.4,8.4,0.1,12.3,1.5c4,1.5,6,3.6,6,6.4S444.8,203.6,440.8,205.7z M461.8,129.5
		c-6,11.3-10.2,19.5-12.3,24.6c-3.4,8.2-5.6,16.8-6.7,25.6L419,179l6.4-53.1L461.8,129.5z"/>
</g>
<g>
	<path class="st2" d="M194.2,181c0,2.8-1.2,5.6-3.5,8.7c-5,6.5-13.1,11.5-24.4,15.2c-11,3.5-22.5,5.2-34,5.1h-7.1
		c-0.5-16.5-2.2-35.6-4.8-57.2c-0.9-6.8-1.7-12.1-2.6-16.1l22.5-3.2c7.5-1.2,15-1.9,22.6-2c14.9,0,23.3,3.3,25.4,9.8
		c0.5,1.5,0.7,3,0.7,4.5c0,7.8-6.4,15.4-19,23.1c11.6-0.5,18.8,1.5,22.1,6C193.4,176.7,194.2,178.8,194.2,181z M164.3,153.3
		c0-1.6-1.7-2.3-5-2.3c-3,0.1-6,0.4-9,1.1c-0.2,2.3-0.2,4.7-0.2,6.9v6.7c7.1-3.1,11.7-6.6,13.8-10.7
		C164.1,154.5,164.3,153.9,164.3,153.3z M165,178.3c-4.8,0.1-9.6,0.6-14.3,1.5c0.1,3.6,0.4,7.2,0.9,10.7c12.8-2.6,19.5-5.6,20.4-9.1
		C172.2,179.4,170,178.3,165,178.3z"/>
	<path class="st2" d="M246.3,211.4l-1.9-13l-10.9,1.3l-0.3,9.3l-34.2,3.3c7.2-24.5,12-49.7,14.2-75.1l49.6-5.4
		c1.2,20.4,7.1,45.3,17.6,74.5L246.3,211.4z M242.4,184.5l-5.9-39.2h-0.2l-1.9,40.2L242.4,184.5z"/>
	<path class="st2" d="M365.4,208.2l-9.7-45.4l-4.7,50.3l-18,1.6l-11.1-64l-4.3,56.7l-34,3c7-23.4,10.3-47.8,9.7-72.3l39-4l7.5,38.1
		l3.6-35.3l37.1-4.1c3.1,24.6,9.2,48.7,18,71.8L365.4,208.2z"/>
	<path class="st2" d="M437.7,210.1c-3.9,1.9-8.1,3.1-12.4,3.4c-4.2,0.5-8.4,0-12.3-1.4c-4-1.4-5.9-3.5-5.9-6.4s1.9-5.2,5.7-7.3
		c3.9-2,8.1-3.2,12.4-3.5c4.2-0.4,8.4,0.1,12.3,1.5c4,1.5,6,3.6,6,6.4S441.7,208,437.7,210.1z M458.7,133.9
		c-6,11.3-10.2,19.5-12.3,24.6c-3.4,8.2-5.6,16.8-6.7,25.6l-23.8-0.7l6.4-53.1L458.7,133.9z"/>
</g>
</svg>
